<svg enable-background="new 0 0 19 27" viewBox="0 0 19 27" xmlns="http://www.w3.org/2000/svg"><path d="m15.9 11.1c1.6 1.6 2.6 3.9 2.6 6.3 0 5-4 9-9 9s-9-4-9-9c0-2.5 1-4.7 2.6-6.3m6.4 1.9v-12.2m-4.3 12.4c-1.1 1.1-1.7 2.6-1.7 4.2 0 3.3 2.7 6 6 6s6-2.7 6-6c0-1.6-.7-3.1-1.7-4.2m-6.4 2.1c-.5.5-.9 1.3-.9 2.1 0 1.7 1.3 3 3 3s3-1.3 3-3c0-.8-.3-1.6-.9-2.1m1.8-6l-3.9 3.9m0 0l-3.9-3.9" fill="none" stroke="#000" stroke-linecap="round" stroke-linejoin="round" stroke-miterlimit="10" vector-effect="non-scaling-stroke"/></svg>